# xmcd CD database file
# Copyright (C) 1995-1998 Ti Kan
#
# Track frame offsets:
#	200
#	22572
#	45667
#	63530
#	84317
#	111582
#	137310
#	159137
#	191677
#	212075
#	230652
#	246747
#
# Disc length: 3644 seconds
#
# Revision: 1
# Processed by: cddbd v1.4PL0 Copyright (c) Steve Scherf et al.
# Submitted via: CDex 1.30Release
#
DISCID=9d0e3a0c
DTITLE=The Magnificent Sevenths feat. 'Big' Al Carson - Best of BOURBON STRE
DTITLE=ET BLUES
DYEAR=1997
DGENRE=Blues
TTITLE0=Watermelon Man
TTITLE1=Born Under a Bad Sign
TTITLE2=Big Legged Woman
TTITLE3=I Want to Be With Her
TTITLE4=I Got a Woman
TTITLE5=Nobody Knows You when You're Down and Out
TTITLE6=Trouble in Mind
TTITLE7=Georgia
TTITLE8=God Bless the Child
TTITLE9=Things Ain't What They Used to Be
TTITLE10=Every Day I Have the Blues
TTITLE11=St. James Infirmary
EXTD=YEAR: 1997 ID3G:   0
EXTT0=
EXTT1=
EXTT2=
EXTT3=
EXTT4=
EXTT5=
EXTT6=
EXTT7=
EXTT8=
EXTT9=
EXTT10=
EXTT11=
PLAYORDER=
